<?xml version="1.0" encoding="UTF-8" standalone="no"?>
<svg
   xmlns:dc="http://purl.org/dc/elements/1.1/"
   xmlns:cc="http://creativecommons.org/ns#"
   xmlns:rdf="http://www.w3.org/1999/02/22-rdf-syntax-ns#"
   xmlns:svg="http://www.w3.org/2000/svg"
   xmlns="http://www.w3.org/2000/svg"
   viewBox="0 0 1056 816"
   height="816"
   width="1056"
   xml:space="preserve"
   id="svg2"
   version="1.1"><metadata
     id="metadata8"><rdf:RDF><cc:Work
         rdf:about=""><dc:format>image/svg+xml</dc:format><dc:type
           rdf:resource="http://purl.org/dc/dcmitype/StillImage" /></cc:Work></rdf:RDF></metadata><defs
     id="defs6"><clipPath
       id="clipPath26"
       clipPathUnits="userSpaceOnUse"><path
         id="path24"
         d="M 0,612 H 792 V 0 H 0 Z" /></clipPath></defs><g
     transform="matrix(1.3333333,0,0,-1.3333333,0,816)"
     id="g10"><path
       id="path12"
       style="fill:#ffffff;fill-opacity:1;fill-rule:nonzero;stroke:#231f20;stroke-width:1.12300003;stroke-linecap:butt;stroke-linejoin:miter;stroke-miterlimit:10;stroke-dasharray:none;stroke-opacity:1"
       d="M 755.887,29.539 H 38.889 v 555.748 h 716.998 z" /><text
       id="text18"
       style="font-variant:normal;font-weight:normal;font-stretch:normal;font-size:37px;font-family:Corbel;-inkscape-font-specification:Corbel;writing-mode:lr-tb;fill:#00b4b2;fill-opacity:1;fill-rule:nonzero;stroke:none"
       transform="matrix(1,0,0,-1,302.0332,258.0308)"><tspan
         id="tspan14"
         y="0"
         x="0 27.01 51.726002 71.002998 94.498001 114.922">OGLASI</tspan><tspan
         id="tspan16"
         y="0"
         x="124.024 149.776 170.16299">NET</tspan></text>
<g
       id="g20"><g
         clip-path="url(#clipPath26)"
         id="g22"><g
           transform="translate(304.7725,330.7935)"
           id="g28"><path
             id="path30"
             style="fill:#00b4b2;fill-opacity:1;fill-rule:nonzero;stroke:none"
             d="m 0,0 c 49.415,-6.177 98.829,-12.354 148.243,-18.531 11.98,-1.498 23.959,-2.995 35.939,-4.492 1.308,-0.164 3.005,1.688 1.048,1.932 C 135.816,-14.914 86.402,-8.737 36.988,-2.56 25.009,-1.062 13.029,0.435 1.05,1.933 -0.26,2.096 -1.956,0.245 0,0" /></g><g
           transform="translate(358.7632,331.9258)"
           id="g32"><path
             id="path34"
             style="fill:#00b4b2;fill-opacity:1;fill-rule:nonzero;stroke:none"
             d="M 0,0 C -4.043,13.474 -4.043,29.643 2.694,44.464 6.736,51.201 10.778,56.59 14.82,63.327 V 56.59 c 10.78,0 17.517,9.432 26.948,12.127 -6.737,-4.042 -10.779,-10.779 -8.084,-17.516 2.695,-5.389 8.084,1.347 13.475,1.347 C 41.768,48.506 22.157,30.1 24.701,30.99 c 35.93,12.575 50.753,0 57.489,-17.516 1.348,-8.084 2.695,-16.168 -1.51,-24.017" /></g><g
           transform="translate(431.4746,342.1846)"
           id="g36"><path
             id="path38"
             style="fill:#ffffff;fill-opacity:1;fill-rule:nonzero;stroke:none"
             d="M 0,0 C -1.428,-0.802 -3.26,-0.251 -4.09,1.229 -4.918,2.708 -4.436,4.557 -3.008,5.357 -1.578,6.159 0.252,5.609 1.08,4.13 1.912,2.65 1.428,0.801 0,0" /></g><g
           transform="translate(439.9648,348.7246)"
           id="g40"><path
             id="path42"
             style="fill:none;stroke:#231f20;stroke-width:2;stroke-linecap:butt;stroke-linejoin:miter;stroke-miterlimit:10;stroke-dasharray:none;stroke-opacity:1"
             d="M 0,0 C 0,0.322 -0.016,0.639 -0.035,0.954 V -0.954 C -0.016,-0.639 0,-0.321 0,0 Z" /></g><g
           transform="translate(439.9297,351.2515)"
           id="g44"><path
             id="path46"
             style="fill:none;stroke:#231f20;stroke-width:2;stroke-linecap:butt;stroke-linejoin:miter;stroke-miterlimit:10;stroke-dasharray:none;stroke-opacity:1"
             d="M 0,0 H -0.187 C -0.098,-0.513 -0.035,-1.038 0,-1.573 Z" /></g><g
           transform="translate(429.6074,336.4946)"
           id="g48"><path
             id="path50"
             style="fill:none;stroke:#231f20;stroke-width:2;stroke-linecap:butt;stroke-linejoin:miter;stroke-miterlimit:10;stroke-dasharray:none;stroke-opacity:1"
             d="m 0,0 c 5.447,0 9.91,4.968 10.322,11.276 v 1.908 c -0.035,0.535 -0.097,1.06 -0.187,1.573 h -20.268 c -0.144,-0.816 -0.222,-1.66 -0.222,-2.527 C -10.355,5.476 -5.719,0 0,0 Z" /></g></g></g></g></svg>